<?xml version="1.0" encoding="UTF-8" standalone="no"?>
<!DOCTYPE svg PUBLIC "-//W3C//DTD SVG 1.1//EN"
"http://www.w3.org/Graphics/SVG/1.1/DTD/svg11.dtd">
<!-- Creator: dpic version 2020.03.01 option -v for SVG 1.1 -->
<!-- width="235" height="235" -->
<svg
 xmlns="http://www.w3.org/2000/svg" xmlns:xlink="http://www.w3.org/1999/xlink"
 xml:space="preserve"
 style="shape-rendering:geometricPrecision; text-rendering:geometricPrecision;
 image-rendering:optimizeQuality; fill-rule:evenodd; clip-rule:evenodd"
 width="233.6px" height="233.6px"
 viewBox="0 0 233.6 233.6"
 font-size="11pt" text-anchor="middle"
 stroke="black" stroke-miterlimit="10" stroke-width="1.066667" fill="none">
<g>
<line x1="116.266667" y1="115.733333" x2="212.266667" y2="115.733333" />
<line x1="116.266667" y1="115.733333" x2="212.208186" y2="112.382982" />
<line x1="116.266667" y1="115.733333" x2="212.032815" y2="109.036712" />
<line x1="116.266667" y1="115.733333" x2="211.740769" y2="105.698601" />
<line x1="116.266667" y1="115.733333" x2="211.332401" y2="102.372716" />
<line x1="116.266667" y1="115.733333" x2="210.808211" y2="99.063108" />
<line x1="116.266667" y1="115.733333" x2="210.168836" y2="95.773811" />
<line x1="116.266667" y1="115.733333" x2="209.415056" y2="92.508831" />
<line x1="116.266667" y1="115.733333" x2="208.547789" y2="89.272147" />
<line x1="116.266667" y1="115.733333" x2="207.568092" y2="86.067702" />
<line x1="116.266667" y1="115.733333" x2="206.477158" y2="82.8994" />
<line x1="116.266667" y1="115.733333" x2="205.276317" y2="79.7711" />
<line x1="116.266667" y1="115.733333" x2="203.967031" y2="76.686616" />
<line x1="116.266667" y1="115.733333" x2="202.550895" y2="73.649703" />
<line x1="116.266667" y1="115.733333" x2="201.029636" y2="70.664063" />
<line x1="116.266667" y1="115.733333" x2="199.405105" y2="67.733333" />
<line x1="116.266667" y1="115.733333" x2="197.679284" y2="64.861084" />
<line x1="116.266667" y1="115.733333" x2="195.854274" y2="62.050815" />
<line x1="116.266667" y1="115.733333" x2="193.932298" y2="59.305949" />
<line x1="116.266667" y1="115.733333" x2="191.915699" y2="56.629832" />
<line x1="116.266667" y1="115.733333" x2="189.806933" y2="54.025723" />
<line x1="116.266667" y1="115.733333" x2="187.60857" y2="51.496795" />
<line x1="116.266667" y1="115.733333" x2="185.323287" y2="49.04613" />
<line x1="116.266667" y1="115.733333" x2="182.95387" y2="46.676713" />
<line x1="116.266667" y1="115.733333" x2="180.503205" y2="44.39143" />
<line x1="116.266667" y1="115.733333" x2="177.974277" y2="42.193067" />
<line x1="116.266667" y1="115.733333" x2="175.370168" y2="40.084301" />
<line x1="116.266667" y1="115.733333" x2="172.694051" y2="38.067702" />
<line x1="116.266667" y1="115.733333" x2="169.949185" y2="36.145726" />
<line x1="116.266667" y1="115.733333" x2="167.138916" y2="34.320716" />
<line x1="116.266667" y1="115.733333" x2="164.266667" y2="32.594895" />
<line x1="116.266667" y1="115.733333" x2="161.335937" y2="30.970364" />
<line x1="116.266667" y1="115.733333" x2="158.350297" y2="29.449105" />
<line x1="116.266667" y1="115.733333" x2="155.313384" y2="28.032969" />
<line x1="116.266667" y1="115.733333" x2="152.2289" y2="26.723683" />
<line x1="116.266667" y1="115.733333" x2="149.1006" y2="25.522842" />
<line x1="116.266667" y1="115.733333" x2="145.932298" y2="24.431908" />
<line x1="116.266667" y1="115.733333" x2="142.727853" y2="23.452211" />
<line x1="116.266667" y1="115.733333" x2="139.491169" y2="22.584944" />
<line x1="116.266667" y1="115.733333" x2="136.226189" y2="21.831164" />
<line x1="116.266667" y1="115.733333" x2="132.936892" y2="21.191789" />
<line x1="116.266667" y1="115.733333" x2="129.627284" y2="20.667599" />
<line x1="116.266667" y1="115.733333" x2="126.301399" y2="20.259231" />
<line x1="116.266667" y1="115.733333" x2="122.963288" y2="19.967185" />
<line x1="116.266667" y1="115.733333" x2="119.617018" y2="19.791814" />
<line x1="116.266667" y1="115.733333" x2="116.266667" y2="19.733333" />
<line x1="116.266667" y1="115.733333" x2="112.916315" y2="19.791814" />
<line x1="116.266667" y1="115.733333" x2="109.570045" y2="19.967185" />
<line x1="116.266667" y1="115.733333" x2="106.231934" y2="20.259231" />
<line x1="116.266667" y1="115.733333" x2="102.906049" y2="20.667599" />
<line x1="116.266667" y1="115.733333" x2="99.596442" y2="21.191789" />
<line x1="116.266667" y1="115.733333" x2="96.307144" y2="21.831164" />
<line x1="116.266667" y1="115.733333" x2="93.042165" y2="22.584944" />
<line x1="116.266667" y1="115.733333" x2="89.805481" y2="23.452211" />
<line x1="116.266667" y1="115.733333" x2="86.601035" y2="24.431908" />
<line x1="116.266667" y1="115.733333" x2="83.432733" y2="25.522842" />
<line x1="116.266667" y1="115.733333" x2="80.304434" y2="26.723683" />
<line x1="116.266667" y1="115.733333" x2="77.219949" y2="28.032969" />
<line x1="116.266667" y1="115.733333" x2="74.183037" y2="29.449105" />
<line x1="116.266667" y1="115.733333" x2="71.197397" y2="30.970364" />
<line x1="116.266667" y1="115.733333" x2="68.266667" y2="32.594895" />
<line x1="116.266667" y1="115.733333" x2="65.394417" y2="34.320716" />
<line x1="116.266667" y1="115.733333" x2="62.584148" y2="36.145726" />
<line x1="116.266667" y1="115.733333" x2="59.839282" y2="38.067702" />
<line x1="116.266667" y1="115.733333" x2="57.163165" y2="40.084301" />
<line x1="116.266667" y1="115.733333" x2="54.559056" y2="42.193067" />
<line x1="116.266667" y1="115.733333" x2="52.030128" y2="44.39143" />
<line x1="116.266667" y1="115.733333" x2="49.579463" y2="46.676713" />
<line x1="116.266667" y1="115.733333" x2="47.210046" y2="49.04613" />
<line x1="116.266667" y1="115.733333" x2="44.924763" y2="51.496795" />
<line x1="116.266667" y1="115.733333" x2="42.7264" y2="54.025723" />
<line x1="116.266667" y1="115.733333" x2="40.617634" y2="56.629832" />
<line x1="116.266667" y1="115.733333" x2="38.601035" y2="59.305949" />
<line x1="116.266667" y1="115.733333" x2="36.67906" y2="62.050815" />
<line x1="116.266667" y1="115.733333" x2="34.854049" y2="64.861084" />
<line x1="116.266667" y1="115.733333" x2="33.128228" y2="67.733333" />
<line x1="116.266667" y1="115.733333" x2="31.503698" y2="70.664063" />
<line x1="116.266667" y1="115.733333" x2="29.982438" y2="73.649703" />
<line x1="116.266667" y1="115.733333" x2="28.566303" y2="76.686616" />
<line x1="116.266667" y1="115.733333" x2="27.257017" y2="79.7711" />
<line x1="116.266667" y1="115.733333" x2="26.056175" y2="82.8994" />
<line x1="116.266667" y1="115.733333" x2="24.965241" y2="86.067702" />
<line x1="116.266667" y1="115.733333" x2="23.985544" y2="89.272147" />
<line x1="116.266667" y1="115.733333" x2="23.118277" y2="92.508831" />
<line x1="116.266667" y1="115.733333" x2="22.364497" y2="95.773811" />
<line x1="116.266667" y1="115.733333" x2="21.725122" y2="99.063108" />
<line x1="116.266667" y1="115.733333" x2="21.200932" y2="102.372716" />
<line x1="116.266667" y1="115.733333" x2="20.792565" y2="105.698601" />
<line x1="116.266667" y1="115.733333" x2="20.500518" y2="109.036712" />
<line x1="116.266667" y1="115.733333" x2="20.325147" y2="112.382982" />
<line x1="116.266667" y1="115.733333" x2="20.266667" y2="115.733333" />
<line x1="116.266667" y1="115.733333" x2="20.325147" y2="119.083685" />
<line x1="116.266667" y1="115.733333" x2="20.500518" y2="122.429955" />
<line x1="116.266667" y1="115.733333" x2="20.792565" y2="125.768066" />
<line x1="116.266667" y1="115.733333" x2="21.200932" y2="129.093951" />
<line x1="116.266667" y1="115.733333" x2="21.725122" y2="132.403558" />
<line x1="116.266667" y1="115.733333" x2="22.364497" y2="135.692856" />
<line x1="116.266667" y1="115.733333" x2="23.118277" y2="138.957835" />
<line x1="116.266667" y1="115.733333" x2="23.985544" y2="142.194519" />
<line x1="116.266667" y1="115.733333" x2="24.965241" y2="145.398965" />
<line x1="116.266667" y1="115.733333" x2="26.056175" y2="148.567267" />
<line x1="116.266667" y1="115.733333" x2="27.257017" y2="151.695566" />
<line x1="116.266667" y1="115.733333" x2="28.566303" y2="154.780051" />
<line x1="116.266667" y1="115.733333" x2="29.982438" y2="157.816963" />
<line x1="116.266667" y1="115.733333" x2="31.503698" y2="160.802603" />
<line x1="116.266667" y1="115.733333" x2="33.128228" y2="163.733333" />
<line x1="116.266667" y1="115.733333" x2="34.854049" y2="166.605583" />
<line x1="116.266667" y1="115.733333" x2="36.67906" y2="169.415852" />
<line x1="116.266667" y1="115.733333" x2="38.601035" y2="172.160718" />
<line x1="116.266667" y1="115.733333" x2="40.617634" y2="174.836835" />
<line x1="116.266667" y1="115.733333" x2="42.7264" y2="177.440944" />
<line x1="116.266667" y1="115.733333" x2="44.924763" y2="179.969872" />
<line x1="116.266667" y1="115.733333" x2="47.210046" y2="182.420537" />
<line x1="116.266667" y1="115.733333" x2="49.579463" y2="184.789954" />
<line x1="116.266667" y1="115.733333" x2="52.030128" y2="187.075237" />
<line x1="116.266667" y1="115.733333" x2="54.559056" y2="189.2736" />
<line x1="116.266667" y1="115.733333" x2="57.163165" y2="191.382366" />
<line x1="116.266667" y1="115.733333" x2="59.839282" y2="193.398965" />
<line x1="116.266667" y1="115.733333" x2="62.584148" y2="195.32094" />
<line x1="116.266667" y1="115.733333" x2="65.394417" y2="197.145951" />
<line x1="116.266667" y1="115.733333" x2="68.266667" y2="198.871772" />
<line x1="116.266667" y1="115.733333" x2="71.197397" y2="200.496302" />
<line x1="116.266667" y1="115.733333" x2="74.183037" y2="202.017562" />
<line x1="116.266667" y1="115.733333" x2="77.219949" y2="203.433697" />
<line x1="116.266667" y1="115.733333" x2="80.304434" y2="204.742983" />
<line x1="116.266667" y1="115.733333" x2="83.432733" y2="205.943825" />
<line x1="116.266667" y1="115.733333" x2="86.601035" y2="207.034759" />
<line x1="116.266667" y1="115.733333" x2="89.805481" y2="208.014456" />
<line x1="116.266667" y1="115.733333" x2="93.042165" y2="208.881723" />
<line x1="116.266667" y1="115.733333" x2="96.307144" y2="209.635503" />
<line x1="116.266667" y1="115.733333" x2="99.596442" y2="210.274878" />
<line x1="116.266667" y1="115.733333" x2="102.906049" y2="210.799068" />
<line x1="116.266667" y1="115.733333" x2="106.231934" y2="211.207435" />
<line x1="116.266667" y1="115.733333" x2="109.570045" y2="211.499482" />
<line x1="116.266667" y1="115.733333" x2="112.916315" y2="211.674853" />
<line x1="116.266667" y1="115.733333" x2="116.266667" y2="211.733333" />
<line x1="116.266667" y1="115.733333" x2="119.617018" y2="211.674853" />
<line x1="116.266667" y1="115.733333" x2="122.963288" y2="211.499482" />
<line x1="116.266667" y1="115.733333" x2="126.301399" y2="211.207435" />
<line x1="116.266667" y1="115.733333" x2="129.627284" y2="210.799068" />
<line x1="116.266667" y1="115.733333" x2="132.936892" y2="210.274878" />
<line x1="116.266667" y1="115.733333" x2="136.226189" y2="209.635503" />
<line x1="116.266667" y1="115.733333" x2="139.491169" y2="208.881723" />
<line x1="116.266667" y1="115.733333" x2="142.727853" y2="208.014456" />
<line x1="116.266667" y1="115.733333" x2="145.932298" y2="207.034759" />
<line x1="116.266667" y1="115.733333" x2="149.1006" y2="205.943825" />
<line x1="116.266667" y1="115.733333" x2="152.2289" y2="204.742983" />
<line x1="116.266667" y1="115.733333" x2="155.313384" y2="203.433697" />
<line x1="116.266667" y1="115.733333" x2="158.350297" y2="202.017562" />
<line x1="116.266667" y1="115.733333" x2="161.335937" y2="200.496302" />
<line x1="116.266667" y1="115.733333" x2="164.266667" y2="198.871772" />
<line x1="116.266667" y1="115.733333" x2="167.138916" y2="197.145951" />
<line x1="116.266667" y1="115.733333" x2="169.949185" y2="195.32094" />
<line x1="116.266667" y1="115.733333" x2="172.694051" y2="193.398965" />
<line x1="116.266667" y1="115.733333" x2="175.370168" y2="191.382366" />
<line x1="116.266667" y1="115.733333" x2="177.974277" y2="189.2736" />
<line x1="116.266667" y1="115.733333" x2="180.503205" y2="187.075237" />
<line x1="116.266667" y1="115.733333" x2="182.95387" y2="184.789954" />
<line x1="116.266667" y1="115.733333" x2="185.323287" y2="182.420537" />
<line x1="116.266667" y1="115.733333" x2="187.60857" y2="179.969872" />
<line x1="116.266667" y1="115.733333" x2="189.806933" y2="177.440944" />
<line x1="116.266667" y1="115.733333" x2="191.915699" y2="174.836835" />
<line x1="116.266667" y1="115.733333" x2="193.932298" y2="172.160718" />
<line x1="116.266667" y1="115.733333" x2="195.854274" y2="169.415852" />
<line x1="116.266667" y1="115.733333" x2="197.679284" y2="166.605583" />
<line x1="116.266667" y1="115.733333" x2="199.405105" y2="163.733333" />
<line x1="116.266667" y1="115.733333" x2="201.029636" y2="160.802603" />
<line x1="116.266667" y1="115.733333" x2="202.550895" y2="157.816963" />
<line x1="116.266667" y1="115.733333" x2="203.967031" y2="154.780051" />
<line x1="116.266667" y1="115.733333" x2="205.276317" y2="151.695566" />
<line x1="116.266667" y1="115.733333" x2="206.477158" y2="148.567267" />
<line x1="116.266667" y1="115.733333" x2="207.568092" y2="145.398965" />
<line x1="116.266667" y1="115.733333" x2="208.547789" y2="142.194519" />
<line x1="116.266667" y1="115.733333" x2="209.415056" y2="138.957835" />
<line x1="116.266667" y1="115.733333" x2="210.168836" y2="135.692856" />
<line x1="116.266667" y1="115.733333" x2="210.808211" y2="132.403558" />
<line x1="116.266667" y1="115.733333" x2="211.332401" y2="129.093951" />
<line x1="116.266667" y1="115.733333" x2="211.740769" y2="125.768066" />
<line x1="116.266667" y1="115.733333" x2="212.032815" y2="122.429955" />
<line x1="116.266667" y1="115.733333" x2="212.208186" y2="119.083685" />
<line x1="116.266667" y1="115.733333" x2="212.266667" y2="115.733333" />
<line x1="1.066667" y1="115.733333" x2="231.466667" y2="115.733333" />
<line x1="116.266667" y1="230.933333" x2="116.266667" y2="0.533333" />
</g></svg>
